<svg width="50" height="50" viewBox="0 0 50 50" fill="none" xmlns="http://www.w3.org/2000/svg">
<path d="M21.7391 0H1.08696C0.48913 0 0 0.48913 0 1.08696V21.7391C0 22.337 0.48913 22.8261 1.08696 22.8261H21.7391C22.337 22.8261 22.8261 22.337 22.8261 21.7391V1.08696C22.8261 0.48913 22.337 0 21.7391 0ZM18.2065 18.2065H4.61957V4.61957H18.2065V18.2065ZM48.913 0H28.2609C27.663 0 27.1739 0.48913 27.1739 1.08696V21.7391C27.1739 22.337 27.663 22.8261 28.2609 22.8261H48.913C49.5109 22.8261 50 22.337 50 21.7391V1.08696C50 0.48913 49.5109 0 48.913 0ZM45.3804 18.2065H31.7935V4.61957H45.3804V18.2065ZM21.7391 27.1739H1.08696C0.48913 27.1739 0 27.663 0 28.2609V48.913C0 49.5109 0.48913 50 1.08696 50H21.7391C22.337 50 22.8261 49.5109 22.8261 48.913V28.2609C22.8261 27.663 22.337 27.1739 21.7391 27.1739ZM18.2065 45.3804H4.61957V31.7935H18.2065V45.3804ZM48.913 27.1739H28.2609C27.663 27.1739 27.1739 27.663 27.1739 28.2609V48.913C27.1739 49.5109 27.663 50 28.2609 50H48.913C49.5109 50 50 49.5109 50 48.913V28.2609C50 27.663 49.5109 27.1739 48.913 27.1739ZM45.3804 45.3804H31.7935V31.7935H45.3804V45.3804Z" fill="white"/>
</svg>
