<svg width="45" height="45" viewBox="0 0 45 45" fill="none" xmlns="http://www.w3.org/2000/svg">
<path fill-rule="evenodd" clip-rule="evenodd" d="M44.8276 22.4138C44.8276 34.7926 34.7926 44.8276 22.4138 44.8276C10.035 44.8276 0 34.7926 0 22.4138C0 10.035 10.035 0 22.4138 0C34.7926 0 44.8276 10.035 44.8276 22.4138ZM4.20145 22.4138C4.20145 25.6053 5.02239 28.6051 6.46463 31.2136C10.5284 27.0982 16.1733 24.5479 22.4138 24.5479C28.6543 24.5479 34.2992 27.0982 38.363 31.2136C39.8052 28.6051 40.6261 25.6053 40.6261 22.4138C40.6261 12.3554 32.4722 4.20145 22.4138 4.20145C12.3554 4.20145 4.20145 12.3554 4.20145 22.4138ZM22.4138 40.6261C17.0841 40.6261 12.289 38.3367 8.95851 34.6877C12.289 31.0387 17.0841 28.7493 22.4138 28.7493C27.7435 28.7493 32.5385 31.0387 35.8691 34.6877C32.5385 38.3367 27.7435 40.6261 22.4138 40.6261ZM22.5932 21.7021C26.0318 21.7021 28.8193 18.9146 28.8193 15.4761C28.8193 12.0375 26.0318 9.25 22.5932 9.25C19.1547 9.25 16.3672 12.0375 16.3672 15.4761C16.3672 18.9146 19.1547 21.7021 22.5932 21.7021ZM22.5932 19.125C20.578 19.125 18.9443 17.4913 18.9443 15.4761C18.9443 13.4608 20.578 11.8271 22.5932 11.8271C24.6085 11.8271 26.2422 13.4608 26.2422 15.4761C26.2422 17.4913 24.6085 19.125 22.5932 19.125Z" fill="white"/>
</svg>
