<svg width="42" height="50" viewBox="0 0 42 50" fill="none" xmlns="http://www.w3.org/2000/svg">
<path d="M42 38.0841C42 31.5654 38.0983 25.9346 32.4545 23.3119V13.6273C32.4545 12.7453 32.1384 11.8925 31.5537 11.2208L22.4616 0.665888C22.0798 0.221963 21.5369 0 21 0C20.4631 0 19.9202 0.221963 19.5384 0.665888L10.4463 11.2208C9.86562 11.8939 9.54655 12.7463 9.54545 13.6273V23.3119C3.9017 25.9346 0 31.5654 0 38.0841H9.33665C9.19943 38.5047 9.12784 38.9603 9.12784 39.4743C9.12784 40.7652 9.58125 42.0269 10.4045 43.0257C11.0766 43.8426 11.9666 44.4613 12.9759 44.8131C14.354 47.9673 17.4861 50 21 50C22.7361 50 24.4185 49.4977 25.8563 48.5514C27.2642 47.6285 28.356 46.3376 29.0182 44.8131C30.0271 44.4634 30.9171 43.8468 31.5895 43.0315C32.4139 42.0236 32.8641 40.7714 32.8662 39.4801C32.8662 38.9895 32.8006 38.5222 32.6812 38.09H42V38.0841ZM35.9327 31.3902C36.4935 32.243 36.9469 33.16 37.275 34.1121H32.2159V27.7278C33.7043 28.6788 34.9709 29.9268 35.9327 31.3902ZM13.6023 23.3119V13.715L21 5.1285L28.3977 13.715V34.1121H13.6023V23.3119ZM4.725 34.1121C5.05312 33.16 5.50654 32.243 6.06733 31.3902C7.03977 29.9182 8.30455 28.6741 9.78409 27.7278V34.1121H4.725ZM27.9264 40.8995C27.6162 41.0748 27.2582 41.1449 26.9062 41.0981L25.7429 40.9579L25.5759 42.0911C25.2537 44.3049 23.2849 45.9755 21 45.9755C18.7151 45.9755 16.7463 44.3049 16.4241 42.0911L16.2571 40.9521L15.0938 41.0981C14.7401 41.1394 14.3822 41.0677 14.0736 40.8937C13.5545 40.6016 13.2324 40.0584 13.2324 39.4685C13.2324 38.8493 13.5844 38.3353 14.1034 38.0783H27.9026C28.4276 38.3411 28.7736 38.8551 28.7736 39.4685C28.7676 40.0643 28.4455 40.6133 27.9264 40.8995ZM18.1364 18.4579C18.1364 19.2015 18.4381 19.9147 18.9751 20.4405C19.5121 20.9663 20.2405 21.2617 21 21.2617C21.7595 21.2617 22.4879 20.9663 23.0249 20.4405C23.5619 19.9147 23.8636 19.2015 23.8636 18.4579C23.8636 17.7143 23.5619 17.0012 23.0249 16.4754C22.4879 15.9496 21.7595 15.6542 21 15.6542C20.2405 15.6542 19.5121 15.9496 18.9751 16.4754C18.4381 17.0012 18.1364 17.7143 18.1364 18.4579Z" fill="white"/>
</svg>
