<svg width="48" height="36" viewBox="0 0 48 36" fill="none" xmlns="http://www.w3.org/2000/svg">
<path d="M34.7578 14.5625C34.7578 14.9769 34.5932 15.3743 34.3002 15.6674C34.0071 15.9604 33.6097 16.125 33.1953 16.125C32.7809 16.125 32.3835 15.9604 32.0905 15.6674C31.7974 15.3743 31.6328 14.9769 31.6328 14.5625C31.6328 14.1481 31.7974 13.7507 32.0905 13.4576C32.3835 13.1646 32.7809 13 33.1953 13C33.6097 13 34.0071 13.1646 34.3002 13.4576C34.5932 13.7507 34.7578 14.1481 34.7578 14.5625ZM30.0703 19.25C30.4847 19.25 30.8821 19.0854 31.1752 18.7924C31.4682 18.4993 31.6328 18.1019 31.6328 17.6875C31.6328 17.2731 31.4682 16.8757 31.1752 16.5826C30.8821 16.2896 30.4847 16.125 30.0703 16.125C29.6559 16.125 29.2585 16.2896 28.9655 16.5826C28.6724 16.8757 28.5078 17.2731 28.5078 17.6875C28.5078 18.1019 28.6724 18.4993 28.9655 18.7924C29.2585 19.0854 29.6559 19.25 30.0703 19.25ZM37.8828 17.6875C37.8828 18.1019 37.7182 18.4993 37.4252 18.7924C37.1321 19.0854 36.7347 19.25 36.3203 19.25C35.9059 19.25 35.5085 19.0854 35.2155 18.7924C34.9224 18.4993 34.7578 18.1019 34.7578 17.6875C34.7578 17.2731 34.9224 16.8757 35.2155 16.5826C35.5085 16.2896 35.9059 16.125 36.3203 16.125C36.7347 16.125 37.1321 16.2896 37.4252 16.5826C37.7182 16.8757 37.8828 17.2731 37.8828 17.6875ZM33.1953 22.375C33.6097 22.375 34.0071 22.2104 34.3002 21.9174C34.5932 21.6243 34.7578 21.2269 34.7578 20.8125C34.7578 20.3981 34.5932 20.0007 34.3002 19.7076C34.0071 19.4146 33.6097 19.25 33.1953 19.25C32.7809 19.25 32.3835 19.4146 32.0905 19.7076C31.7974 20.0007 31.6328 20.3981 31.6328 20.8125C31.6328 21.2269 31.7974 21.6243 32.0905 21.9174C32.3835 22.2104 32.7809 22.375 33.1953 22.375ZM12.8828 13H16.0078V16.125H19.1328V19.25H16.0078V22.375H12.8828V19.25H9.75781V16.125H12.8828V13Z" fill="white"/>
<path d="M8.35211 3.58737C8.29874 3.38895 8.28502 3.18195 8.31175 2.97822C8.33848 2.77449 8.40513 2.57803 8.50789 2.40009C8.61065 2.22216 8.74749 2.06623 8.91058 1.94125C9.07368 1.81627 9.25983 1.72469 9.45836 1.67174L15.4959 0.0529933C15.7034 -0.00231847 15.9202 -0.0142405 16.1325 0.0179711C16.3449 0.0501828 16.5483 0.125836 16.7302 0.240207C16.912 0.354578 17.0683 0.505209 17.1893 0.682693C17.3103 0.860177 17.3934 1.0607 17.4334 1.27174C19.4802 1.02487 21.6521 0.906118 23.8177 0.906118C26.0677 0.906118 28.3271 1.03424 30.4427 1.29987C30.4793 1.08563 30.5601 0.881365 30.68 0.700131C30.8 0.518898 30.9564 0.364681 31.1394 0.247335C31.3223 0.129989 31.5277 0.052096 31.7424 0.0186327C31.9572 -0.0148305 32.1765 -0.00312783 32.3865 0.0529933L38.424 1.67174C38.6544 1.73341 38.8676 1.847 39.0473 2.0038C39.227 2.1606 39.3684 2.35645 39.4607 2.57635C39.553 2.79625 39.5937 3.03436 39.5798 3.27244C39.5658 3.51052 39.4976 3.74225 39.3802 3.94987C39.8198 4.2332 40.2084 4.54258 40.5459 4.87799C41.8209 6.15299 42.9834 8.15924 43.9677 10.4155C44.9677 12.7061 45.8396 15.3874 46.4834 18.1217C47.1271 20.8561 47.5459 23.6842 47.6209 26.2655C47.6959 28.8155 47.4365 31.2717 46.5959 33.1717C46.2125 34.0248 45.5695 34.7349 44.7585 35.2007C43.9476 35.6665 43.0102 35.8641 42.0802 35.7655C40.0927 35.5561 38.5959 34.5342 37.3521 33.3499C36.5865 32.6249 35.8021 31.7061 35.0427 30.8249C34.649 30.3624 34.2615 29.9124 33.8927 29.503C31.6177 26.9905 28.9021 24.7311 23.8177 24.7311C18.7334 24.7311 16.0177 26.9905 13.7427 29.503C13.3709 29.9124 12.9865 30.3624 12.5927 30.8249C11.8334 31.7061 11.049 32.6217 10.2834 33.3499C9.03961 34.5374 7.54274 35.5561 5.55524 35.7655C4.62526 35.8641 3.68789 35.6665 2.87695 35.2007C2.06601 34.7349 1.42296 34.0248 1.03961 33.1717C0.195863 31.2717 -0.0603874 28.8124 0.0114877 26.2655C0.0864877 23.6842 0.511488 20.8592 1.15211 18.1217C1.79586 15.3874 2.67086 12.7061 3.66774 10.4155C4.65211 8.15924 5.81461 6.15299 7.08649 4.87799C7.49424 4.47641 7.9485 4.12496 8.43961 3.83112L8.35211 3.58737ZM14.7146 4.87487C11.974 5.45299 10.124 6.25924 9.29899 7.08737C8.43649 7.94987 7.46461 9.53424 6.53336 11.6655C5.54917 13.9844 4.7671 16.3839 4.19586 18.8374C3.59745 21.3029 3.24262 23.8212 3.13649 26.3561C3.06774 28.7155 3.33024 30.6311 3.89586 31.9061C4.0117 32.1545 4.20236 32.3603 4.4411 32.4948C4.67984 32.6293 4.95469 32.6857 5.22711 32.6561C6.24899 32.5499 7.13336 32.0342 8.13024 31.0874C8.79274 30.4561 9.38024 29.7655 10.0521 28.9811C10.4677 28.4936 10.9146 27.9717 11.4271 27.4061C14.0084 24.553 17.499 21.6092 23.8177 21.6092C30.1365 21.6092 33.6271 24.553 36.2084 27.4061C36.7209 27.9717 37.1677 28.4936 37.5834 28.9811C38.2521 29.7655 38.8427 30.4561 39.5052 31.0874C40.499 32.0342 41.3834 32.5499 42.4084 32.6592C42.6811 32.6886 42.9563 32.6317 43.195 32.4966C43.4338 32.3616 43.6243 32.155 43.7396 31.9061C44.3021 30.6311 44.5677 28.7186 44.499 26.3561C44.3929 23.8212 44.038 21.3029 43.4396 18.8374C42.8684 16.3839 42.0863 13.9844 41.1021 11.6655C40.1709 9.53424 39.1959 7.94674 38.3365 7.08737C37.5115 6.25924 35.6615 5.45299 32.9209 4.87487C30.2646 4.31549 27.0552 4.03112 23.8177 4.03112C20.5802 4.03112 17.3709 4.31549 14.7146 4.87487Z" fill="white"/>
</svg>
