<svg width="38" height="38" viewBox="0 0 38 38" fill="none" xmlns="http://www.w3.org/2000/svg">
<path d="M18.75 0C8.39355 0 0 8.39355 0 18.75V36.3281C0 36.9775 0.522461 37.5 1.17188 37.5H10.1562C11.8799 37.5 13.2812 36.0986 13.2812 34.375V24.2188C13.2812 22.4951 11.8799 21.0938 10.1562 21.0938H3.51562V18.75C3.51562 10.3369 10.3369 3.51562 18.75 3.51562C27.1631 3.51562 33.9844 10.3369 33.9844 18.75V21.0938H27.3438C25.6201 21.0938 24.2188 22.4951 24.2188 24.2188V34.375C24.2188 36.0986 25.6201 37.5 27.3438 37.5H36.3281C36.9775 37.5 37.5 36.9775 37.5 36.3281V18.75C37.5 8.39355 29.1064 0 18.75 0ZM9.76562 24.6094V33.9844H3.51562V24.6094H9.76562ZM33.9844 33.9844H27.7344V24.6094H33.9844V33.9844Z" fill="white"/>
</svg>
