<svg width="48" height="54" viewBox="0 0 48 54" fill="none" xmlns="http://www.w3.org/2000/svg">
<path d="M17.233 49.5C18.9958 51.056 21.3115 52 23.8475 52C26.3838 52 28.6993 51.056 30.462 49.5M38.8475 17C38.8475 13.0217 37.2673 9.20645 34.4543 6.3934C31.641 3.58035 27.8258 2 23.8475 2C19.8693 2 16.054 3.58035 13.241 6.3934C10.4279 9.20645 8.84759 13.0217 8.84759 17C8.84759 24.7255 6.89877 30.015 4.72174 33.5135C2.88542 36.4648 1.96724 37.9403 2.00089 38.352C2.03819 38.8078 2.13474 38.9815 2.50202 39.254C2.83374 39.5 4.32907 39.5 7.31972 39.5H40.3755C43.366 39.5 44.8615 39.5 45.193 39.254C45.5605 38.9815 45.6571 38.8078 45.6943 38.352C45.7281 37.9403 44.8098 36.4648 42.9735 33.5135C40.7963 30.015 38.8475 24.7255 38.8475 17Z" stroke="white" stroke-width="3.42857" stroke-linecap="round" stroke-linejoin="round"/>
</svg>
