<svg width="44" height="50" viewBox="0 0 44 50" fill="none" xmlns="http://www.w3.org/2000/svg">
<path fill-rule="evenodd" clip-rule="evenodd" d="M29.5579 37.1136C25.9412 40.4702 21.3425 42.104 16.7093 41.6786C12.076 41.2531 7.76119 38.8008 4.65374 34.8268C1.54629 30.8528 -0.117054 25.6599 0.00641276 20.318C0.129879 14.9761 2.03075 9.89204 5.31738 6.1134C8.60402 2.33475 13.0261 0.149322 17.6724 0.00737275C22.3188 -0.134577 26.8355 1.77777 30.2921 5.35041C33.7486 8.92304 35.8816 13.8838 36.2517 19.2107C36.6217 24.5375 35.2006 29.8247 32.2811 33.9828C32.3563 34.0507 32.4282 34.1234 32.4964 34.2004L42.8705 46.1275C43.0616 46.3323 43.2149 46.5792 43.3212 46.8535C43.4275 47.1278 43.4847 47.4239 43.4893 47.7242C43.4939 48.0245 43.4458 48.3228 43.348 48.6012C43.2502 48.8797 43.1046 49.1326 42.9199 49.345C42.7351 49.5573 42.5151 49.7248 42.2729 49.8372C42.0307 49.9497 41.7713 50.0049 41.5101 49.9996C41.2489 49.9943 40.9914 49.9286 40.7528 49.8064C40.5142 49.6842 40.2994 49.5079 40.1213 49.2882L29.7473 37.3611C29.6802 37.2827 29.617 37.2001 29.5579 37.1136ZM32.4186 20.8719C32.4186 25.2214 30.9157 29.3927 28.2407 32.4683C25.5656 35.5438 21.9374 37.2717 18.1542 37.2717C14.3711 37.2717 10.7429 35.5438 8.06778 32.4683C5.39269 29.3927 3.88984 25.2214 3.88984 20.8719C3.88984 16.5224 5.39269 12.3511 8.06778 9.27553C10.7429 6.19998 14.3711 4.47215 18.1542 4.47215C21.9374 4.47215 25.5656 6.19998 28.2407 9.27553C30.9157 12.3511 32.4186 16.5224 32.4186 20.8719Z" fill="white"/>
</svg>
