<svg width="50" height="50" viewBox="0 0 50 50" fill="none" xmlns="http://www.w3.org/2000/svg">
<path fill-rule="evenodd" clip-rule="evenodd" d="M50 25C50 38.8071 38.8071 50 25 50C11.1929 50 0 38.8071 0 25C0 11.1929 11.1929 0 25 0C38.8071 0 50 11.1929 50 25ZM22.2266 37.6547V22.8398H27.1648V37.6547H22.2266ZM24.6957 17.9021C26.0594 17.9021 27.1648 16.7967 27.1648 15.433C27.1648 14.0693 26.0594 12.9639 24.6957 12.9639C23.332 12.9639 22.2266 14.0693 22.2266 15.433C22.2266 16.7967 23.332 17.9021 24.6957 17.9021Z" fill="white"/>
</svg>
