<svg width="50" height="50" viewBox="0 0 50 50" fill="none" xmlns="http://www.w3.org/2000/svg">
<path d="M44.5124 36.7441C42.948 35.1786 41.1201 33.9008 39.1124 32.9692C41.9436 30.6756 43.7499 27.1757 43.7499 23.2508C43.7499 16.326 37.9749 10.6449 31.05 10.7512C24.2313 10.8574 18.7375 16.4135 18.7375 23.2508C18.7375 27.1757 20.55 30.6756 23.375 32.9692C21.367 33.9001 19.539 35.178 17.975 36.7441C14.5626 40.1628 12.6251 44.6752 12.5001 49.4875C12.4984 49.5542 12.5101 49.6206 12.5345 49.6827C12.5589 49.7448 12.5954 49.8014 12.642 49.8492C12.6886 49.8969 12.7443 49.9349 12.8058 49.9608C12.8673 49.9867 12.9333 50 13.0001 50H16.5001C16.7688 50 16.9938 49.7875 17 49.5188C17.1188 45.8939 18.5875 42.5002 21.1688 39.9253C22.4896 38.5974 24.0608 37.5447 25.7912 36.8281C27.5216 36.1115 29.377 35.7452 31.25 35.7504C35.0562 35.7504 38.6374 37.2316 41.3311 39.9253C43.9061 42.5002 45.3749 45.8939 45.4999 49.5188C45.5061 49.7875 45.7311 50 45.9999 50H49.4998C49.5666 50 49.6326 49.9867 49.6941 49.9608C49.7556 49.9349 49.8113 49.8969 49.8579 49.8492C49.9045 49.8014 49.9411 49.7448 49.9654 49.6827C49.9898 49.6206 50.0015 49.5542 49.9998 49.4875C49.8748 44.6752 47.9374 40.1628 44.5124 36.7441ZM31.25 31.2506C29.1125 31.2506 27.1 30.4193 25.5937 28.9069C24.8378 28.1569 24.2407 27.2624 23.8381 26.2767C23.4354 25.291 23.2354 24.2342 23.25 23.1695C23.2688 21.1196 24.0875 19.1384 25.5187 17.6697C27.0187 16.1322 29.025 15.276 31.1687 15.251C33.2874 15.2323 35.3437 16.0572 36.8562 17.5385C38.4062 19.0572 39.2562 21.0883 39.2562 23.2508C39.2562 25.3882 38.4249 27.3944 36.9124 28.9069C36.1704 29.6524 35.2879 30.2435 34.3159 30.6458C33.344 31.0481 32.3019 31.2536 31.25 31.2506ZM15.5938 24.9007C15.5376 24.357 15.5063 23.807 15.5063 23.2508C15.5063 22.2571 15.6001 21.2883 15.7751 20.3446C15.8188 20.1196 15.7001 19.8884 15.4938 19.7946C14.6438 19.4134 13.8626 18.8884 13.1876 18.2259C12.3922 17.4548 11.7663 16.5262 11.3499 15.4997C10.9334 14.4731 10.7355 13.3709 10.7688 12.2636C10.8251 10.2574 11.6313 8.35122 13.0376 6.91376C14.5813 5.33256 16.6563 4.47009 18.8625 4.49508C20.8563 4.51383 22.7813 5.28256 24.2375 6.64502C24.7313 7.10751 25.1562 7.61999 25.5125 8.16998C25.6375 8.36372 25.8812 8.44497 26.0937 8.36997C27.1937 7.98873 28.3562 7.71999 29.55 7.59499C29.9 7.55749 30.1 7.18251 29.9437 6.87001C27.9125 2.85138 23.7625 0.0764642 18.9625 0.00146644C12.0313 -0.10478 6.25637 5.5763 6.25637 12.4949C6.25637 16.4197 8.06261 19.9196 10.8938 22.2133C8.90635 23.132 7.07511 24.4007 5.48762 25.9882C2.06264 29.4069 0.125156 33.9192 0.000156287 38.7378C-0.00151186 38.8045 0.0101882 38.8709 0.0345675 38.933C0.0589468 38.9951 0.0955117 39.0517 0.142108 39.0995C0.188704 39.1472 0.244389 39.1852 0.305881 39.2111C0.367373 39.237 0.433427 39.2503 0.500153 39.2503H4.00638C4.27513 39.2503 4.50013 39.0378 4.50638 38.7691C4.62513 35.1442 6.09387 31.7505 8.6751 29.1756C10.5126 27.3382 12.7626 26.0632 15.2188 25.4445C15.4626 25.382 15.6251 25.1507 15.5938 24.9007Z" fill="white"/>
</svg>
