<svg width="50" height="50" viewBox="0 0 50 50" fill="none" xmlns="http://www.w3.org/2000/svg">
<path d="M44.7625 37.7907H40.7591C40.4857 37.7907 40.2294 37.9128 40.0586 38.1279C39.66 38.6221 39.2328 39.0989 38.783 39.5523C36.943 41.4328 34.7634 42.9314 32.3649 43.9651C29.88 45.0366 27.2092 45.5863 24.5118 45.5814C21.7839 45.5814 19.1415 45.0349 16.6586 43.9651C14.2601 42.9314 12.0805 41.4328 10.2405 39.5523C8.39724 37.6783 6.92742 35.457 5.91248 33.0117C4.85894 30.4768 4.32933 27.7849 4.32933 25C4.32933 22.2152 4.86464 19.5233 5.91248 16.9884C6.92616 14.5408 8.38403 12.3373 10.2405 10.4477C12.0971 8.55821 14.2554 7.06984 16.6586 6.03496C19.1415 4.9652 21.7839 4.41868 24.5118 4.41868C27.2396 4.41868 29.882 4.95938 32.3649 6.03496C34.7681 7.06984 36.9264 8.55821 38.783 10.4477C39.2328 10.907 39.6543 11.3838 40.0586 11.8722C40.2294 12.0873 40.4914 12.2094 40.7591 12.2094H44.7625C45.1213 12.2094 45.3434 11.8024 45.1441 11.4943C40.7761 4.56403 33.1337 -0.0231678 24.4491 8.80154e-05C10.8043 0.0349717 -0.135409 11.3431 0.00126684 25.2559C0.137942 38.9477 11.0606 50 24.5118 50C33.1736 50 40.7818 45.4186 45.1441 38.5058C45.3377 38.1977 45.1213 37.7907 44.7625 37.7907ZM49.8252 24.6338L41.7443 18.1222C41.4424 17.878 41.0039 18.0989 41.0039 18.4884V22.907H23.1222C22.8716 22.907 22.6666 23.1163 22.6666 23.3721V26.6279C22.6666 26.8838 22.8716 27.0931 23.1222 27.0931H41.0039V31.5117C41.0039 31.9012 41.4481 32.1221 41.7443 31.8779L49.8252 25.3663C49.8797 25.3228 49.9237 25.2672 49.954 25.2038C49.9843 25.1403 50 25.0706 50 25C50 24.9295 49.9843 24.8598 49.954 24.7963C49.9237 24.7329 49.8797 24.6773 49.8252 24.6338Z" fill="white"/>
</svg>
