<svg width="50" height="50" viewBox="0 0 50 50" fill="none" xmlns="http://www.w3.org/2000/svg">
<path d="M49.3398 31.3554L45.4786 28.2302C45.6614 27.1699 45.7557 26.0872 45.7557 25.0045C45.7557 23.9219 45.6614 22.8392 45.4786 21.7789L49.3398 18.6536C49.631 18.4176 49.8394 18.1032 49.9374 17.7523C50.0353 17.4014 50.0181 17.0306 49.888 16.6892L49.8349 16.5441C48.772 13.7315 47.1803 11.1243 45.1367 8.84827L45.0306 8.73107C44.7827 8.45512 44.4523 8.25675 44.083 8.1621C43.7136 8.06746 43.3226 8.08099 42.9616 8.2009L38.1691 9.81374C36.4006 8.44088 34.4258 7.35821 32.2919 6.59923L31.3664 1.8556C31.2966 1.49867 31.1137 1.1703 30.8421 0.914114C30.5704 0.657932 30.2228 0.486065 29.8456 0.421346L29.6864 0.393442C26.6152 -0.131147 23.3848 -0.131147 20.3136 0.393442L20.1544 0.421346C19.7772 0.486065 19.4296 0.657932 19.1579 0.914114C18.8863 1.1703 18.7034 1.49867 18.6336 1.8556L17.7022 6.62155C15.5853 7.38073 13.614 8.46282 11.8663 9.8249L7.03844 8.2009C6.67748 8.08004 6.28621 8.06602 5.91663 8.16072C5.54705 8.25542 5.21666 8.45435 4.96936 8.73107L4.86325 8.84827C2.82212 11.1259 1.23069 13.7327 0.165067 16.5441L0.112014 16.6892C-0.153254 17.3868 0.0648552 18.1681 0.660233 18.6536L4.56851 21.8123C4.38577 22.8615 4.29735 23.933 4.29735 24.9989C4.29735 26.0704 4.38577 27.142 4.56851 28.1856L0.660233 31.3443C0.369003 31.5803 0.160566 31.8946 0.0626385 32.2456C-0.0352892 32.5965 -0.0180677 32.9673 0.112014 33.3087L0.165067 33.4538C1.23203 36.2665 2.81185 38.8615 4.86325 41.1496L4.96936 41.2668C5.21726 41.5428 5.54766 41.7411 5.91702 41.8358C6.28638 41.9304 6.67737 41.9169 7.03844 41.797L11.8663 40.173C13.623 41.5403 15.586 42.6229 17.7022 43.3763L18.6336 48.1423C18.7034 48.4992 18.8863 48.8276 19.1579 49.0838C19.4296 49.34 19.7772 49.5118 20.1544 49.5765L20.3136 49.6045C23.413 50.1319 26.587 50.1319 29.6864 49.6045L29.8456 49.5765C30.2228 49.5118 30.5704 49.34 30.8421 49.0838C31.1137 48.8276 31.2966 48.4992 31.3664 48.1423L32.2919 43.3987C34.425 42.6417 36.4109 41.5555 38.1691 40.1842L42.9616 41.797C43.3225 41.9179 43.7138 41.9319 44.0834 41.8372C44.453 41.7425 44.7833 41.5435 45.0306 41.2668L45.1367 41.1496C47.1882 38.8559 48.768 36.2665 49.8349 33.4538L49.888 33.3087C50.1533 32.6222 49.9351 31.8409 49.3398 31.3554ZM41.2933 22.4374C41.4407 23.2801 41.5173 24.1451 41.5173 25.0101C41.5173 25.8751 41.4407 26.7401 41.2933 27.5828L40.9043 29.8207L45.3077 33.3868C44.6402 34.8428 43.7975 36.221 42.7965 37.4942L37.3261 35.6582L35.4751 37.098C34.0662 38.1918 32.4982 39.0513 30.8005 39.654L28.5546 40.452L27.4994 45.8654C25.8345 46.0439 24.1537 46.0439 22.4888 45.8654L21.4336 40.4409L19.2054 39.6317C17.5254 39.0289 15.9632 38.1695 14.5661 37.0813L12.7152 35.6358L7.20939 37.4887C6.20727 36.2107 5.3702 34.8322 4.69819 33.3812L9.14879 29.7816L8.76563 27.5493C8.62415 26.7178 8.54752 25.8584 8.54752 25.0101C8.54752 24.1563 8.61826 23.3024 8.76563 22.4709L9.14879 20.2386L4.69819 16.639C5.36431 15.1824 6.20727 13.8096 7.20939 12.5316L12.7152 14.3844L14.5661 12.939C15.9632 11.8507 17.5254 10.9913 19.2054 10.3886L21.4395 9.59051L22.4947 4.16603C24.1511 3.98744 25.843 3.98744 27.5053 4.16603L28.5605 9.57935L30.8064 10.3774C32.4982 10.9801 34.0721 11.8395 35.481 12.9334L37.332 14.3732L42.8024 12.5371C43.8045 13.8151 44.6416 15.1936 45.3136 16.6446L40.9102 20.2107L41.2933 22.4374ZM25.0059 14.6299C19.2761 14.6299 14.631 19.0275 14.631 24.452C14.631 29.8765 19.2761 34.2741 25.0059 34.2741C30.7357 34.2741 35.3808 29.8765 35.3808 24.452C35.3808 19.0275 30.7357 14.6299 25.0059 14.6299ZM29.6746 28.872C29.0623 29.4534 28.3345 29.9144 27.5333 30.2285C26.7321 30.5427 25.8731 30.7037 25.0059 30.7025C23.2433 30.7025 21.5869 30.0495 20.3372 28.872C19.7231 28.2923 19.2361 27.6033 18.9043 26.8448C18.5725 26.0862 18.4023 25.2731 18.4037 24.452C18.4037 22.7834 19.0934 21.2152 20.3372 20.0321C21.5869 18.849 23.2433 18.2016 25.0059 18.2016C26.7685 18.2016 28.4249 18.849 29.6746 20.0321C30.2887 20.6118 30.7757 21.3007 31.1075 22.0593C31.4393 22.8178 31.6095 23.631 31.6081 24.452C31.6081 26.1207 30.9184 27.6889 29.6746 28.872Z" fill="white"/>
</svg>
