<svg width="50" height="50" viewBox="0 0 50 50" fill="none" xmlns="http://www.w3.org/2000/svg">
<path d="M25.5 39.7998C35.5 39.7998 38 29.7998 38 29.7998H13C13 29.7998 15.5 39.7998 25.5 39.7998Z" fill="white"/>
<path d="M25 50C38.785 50 50 38.785 50 25C50 11.215 38.785 0 25 0C11.215 0 0 11.215 0 25C0 38.785 11.215 50 25 50ZM25 5C36.0275 5 45 13.9725 45 25C45 36.0275 36.0275 45 25 45C13.9725 45 5 36.0275 5 25C5 13.9725 13.9725 5 25 5Z" fill="white"/>
<path d="M16.9379 26.585L22.0629 21.3775C22.4115 21.029 22.6872 20.6146 22.8739 20.1584C23.0606 19.7023 23.1546 19.2135 23.1504 18.7206C23.1462 18.2277 23.0439 17.7406 22.8495 17.2877C22.6551 16.8347 22.3724 16.4251 22.0179 16.0825C21.3351 15.4041 20.4162 15.0164 19.4538 15.0005C18.4914 14.9847 17.5602 15.342 16.8554 15.9975C16.1396 15.3515 15.2011 15.0083 14.2374 15.04C13.2737 15.0717 12.3598 15.4759 11.6879 16.1675C10.2229 17.6675 10.2404 19.9925 11.7354 21.46L16.9379 26.585ZM34.4379 26.585L39.5629 21.3775C39.9115 21.029 40.1872 20.6146 40.3739 20.1584C40.5606 19.7023 40.6546 19.2135 40.6504 18.7206C40.6462 18.2277 40.5439 17.7406 40.3495 17.2877C40.1551 16.8347 39.8724 16.4251 39.5179 16.0825C38.8351 15.4041 37.9162 15.0164 36.9538 15.0005C35.9914 14.9847 35.0602 15.342 34.3554 15.9975C33.6398 15.3505 32.701 15.0063 31.7366 15.0376C30.7723 15.0688 29.8577 15.473 29.1854 16.165C27.7204 17.665 27.7379 19.99 29.2329 21.4575L34.4379 26.585Z" fill="white"/>
</svg>
