<svg width="40" height="39" viewBox="0 0 40 39" fill="none" xmlns="http://www.w3.org/2000/svg">
<path d="M18.8997 3.89823C19.382 2.81619 19.6233 2.27517 19.9591 2.10856C20.2508 1.96381 20.5933 1.96381 20.8849 2.10856C21.2208 2.27517 21.462 2.81619 21.9443 3.89823L25.786 12.5168L25.7868 12.5186C25.929 12.8373 26.0002 12.9969 26.1104 13.1191C26.2079 13.2275 26.3272 13.3142 26.4604 13.3735C26.611 13.4406 26.7852 13.459 27.1335 13.4957L36.5174 14.4862C37.6956 14.6105 38.2845 14.6727 38.5468 14.9406C38.7745 15.1733 38.8804 15.4991 38.8329 15.8213C38.7783 16.192 38.3386 16.5883 37.4591 17.3809L37.4583 17.3817L30.4485 23.6987L30.4476 23.6996C30.1882 23.9334 30.0582 24.0506 29.976 24.1931C29.9031 24.3196 29.8574 24.4598 29.8422 24.6048C29.8249 24.7688 29.8612 24.94 29.9339 25.2827L31.8918 34.5133C32.1377 35.6723 32.2606 36.2517 32.0868 36.5838C31.9358 36.8725 31.6587 37.0737 31.3377 37.1281C30.9681 37.1906 30.4549 36.8948 29.4287 36.3029L21.2547 31.5883C20.9514 31.4133 20.7997 31.326 20.6385 31.2917C20.4958 31.2615 20.3483 31.2615 20.2056 31.2917C20.0443 31.326 19.8927 31.4133 19.5893 31.5883L11.4154 36.3029C10.3892 36.8948 9.87609 37.1906 9.50649 37.1281C9.18543 37.0737 8.90826 36.8725 8.75734 36.5838C8.58361 36.2517 8.70651 35.6723 8.95232 34.5133L10.9102 25.2827C10.9828 24.94 11.0192 24.7688 11.0019 24.6048C10.9866 24.4598 10.9411 24.3196 10.8682 24.1931C10.7858 24.0504 10.6557 23.9331 10.3955 23.6987L3.3859 17.3817L3.38497 17.3808C2.50557 16.5883 2.06584 16.192 2.01115 15.8213C1.96365 15.4991 2.06951 15.1733 2.2973 14.9406C2.55955 14.6727 3.14861 14.6105 4.32674 14.4862L13.7107 13.4957C14.059 13.459 14.2331 13.4406 14.3837 13.3735C14.5169 13.3142 14.6362 13.2275 14.7338 13.1191C14.8441 12.9966 14.9154 12.8367 15.058 12.5168L18.8997 3.89823Z" fill="#FAFF00" stroke="#FAFF00" stroke-width="2.31796" stroke-linecap="round" stroke-linejoin="round"/>
</svg>
